[
  {
    "name": "1-Osirus",
    "type": "MIDI",
    "track_type": "bass",
    "clips": [
      {
        "name": "bass",
        "start": 0.0,
        "end": 16.0,
        "duration": 16.0,
        "notes_count": 38,
        "note_statistics": {
          "enabled_notes": 32,
          "disabled_notes": 6,
          "pitch_range": {
            "min": 38,
            "max": 40,
            "unique_count": 2
          },
          "velocity_range": {
            "min": 100,
            "max": 100,
            "avg": 100.0
          },
          "duration_range": {
            "min": 0.25,
            "max": 0.25,
            "avg": 0.25
          },
          "note_density": 2.0317460317460316
        },
        "notes": [
          {
            "time": 8.25,
            "duration": 0.25,
            "pitch": 38,
            "velocity": 100,
            "enabled": true
          },
          {
            "time": 8.5,
            "duration": 0.25,
            "pitch": 38,
            "velocity": 100,
            "enabled": true
          },
          {
            "time": 9.5,
            "duration": 0.25,
            "pitch": 38,
            "velocity": 100,
            "enabled": true
          },
          {
            "time": 9.75,
            "duration": 0.25,
            "pitch": 38,
            "velocity": 100,
            "enabled": true
          },
          {
            "time": 10.5,
            "duration": 0.25,
            "pitch": 38,
            "velocity": 100,
            "enabled": true
          },
          {
            "time": 10.75,
            "duration": 0.25,
            "pitch": 38,
            "velocity": 100,
            "enabled": true
          },
          {
            "time": 11.25,
            "duration": 0.25,
            "pitch": 38,
            "velocity": 100,
            "enabled": true
          },
          {
            "time": 11.5,
            "duration": 0.25,
            "pitch": 38,
            "velocity": 100,
            "enabled": true
          },
          {
            "time": 12.25,
            "duration": 0.25,
            "pitch": 38,
            "velocity": 100,
            "enabled": true
          },
          {
            "time": 12.5,
            "duration": 0.25,
            "pitch": 38,
            "velocity": 100,
            "enabled": true
          },
          {
            "time": 12.75,
            "duration": 0.25,
            "pitch": 38,
            "velocity": 100,
            "enabled": true
          },
          {
            "time": 13.0,
            "duration": 0.25,
            "pitch": 38,
            "velocity": 100,
            "enabled": false
          },
          {
            "time": 13.5,
            "duration": 0.25,
            "pitch": 38,
            "velocity": 100,
            "enabled": true
          },
          {
            "time": 14.0,
            "duration": 0.25,
            "pitch": 38,
            "velocity": 100,
            "enabled": false
          },
          {
            "time": 14.5,
            "duration": 0.25,
            "pitch": 38,
            "velocity": 100,
            "enabled": true
          },
          {
            "time": 15.0,
            "duration": 0.25,
            "pitch": 38,
            "velocity": 100,
            "enabled": true
          },
          {
            "time": 15.25,
            "duration": 0.25,
            "pitch": 38,
            "velocity": 100,
            "enabled": true
          },
          {
            "time": 15.5,
            "duration": 0.25,
            "pitch": 38,
            "velocity": 100,
            "enabled": true
          },
          {
            "time": 0.0,
            "duration": 0.25,
            "pitch": 40,
            "velocity": 100,
            "enabled": true
          },
          {
            "time": 0.5,
            "duration": 0.25,
            "pitch": 40,
            "velocity": 100,
            "enabled": false
          },
          {
            "time": 1.25,
            "duration": 0.25,
            "pitch": 40,
            "velocity": 100,
            "enabled": true
          },
          {
            "time": 1.5,
            "duration": 0.25,
            "pitch": 40,
            "velocity": 100,
            "enabled": true
          },
          {
            "time": 2.0,
            "duration": 0.25,
            "pitch": 40,
            "velocity": 100,
            "enabled": true
          },
          {
            "time": 2.5,
            "duration": 0.25,
            "pitch": 40,
            "velocity": 100,
            "enabled": true
          },
          {
            "time": 3.0,
            "duration": 0.25,
            "pitch": 40,
            "velocity": 100,
            "enabled": true
          },
          {
            "time": 3.25,
            "duration": 0.25,
            "pitch": 40,
            "velocity": 100,
            "enabled": true
          },
          {
            "time": 3.5,
            "duration": 0.25,
            "pitch": 40,
            "velocity": 100,
            "enabled": true
          },
          {
            "time": 4.25,
            "duration": 0.25,
            "pitch": 40,
            "velocity": 100,
            "enabled": true
          },
          {
            "time": 4.5,
            "duration": 0.25,
            "pitch": 40,
            "velocity": 100,
            "enabled": true
          },
          {
            "time": 5.0,
            "duration": 0.25,
            "pitch": 40,
            "velocity": 100,
            "enabled": false
          },
          {
            "time": 5.5,
            "duration": 0.25,
            "pitch": 40,
            "velocity": 100,
            "enabled": true
          },
          {
            "time": 5.75,
            "duration": 0.25,
            "pitch": 40,
            "velocity": 100,
            "enabled": true
          },
          {
            "time": 6.5,
            "duration": 0.25,
            "pitch": 40,
            "velocity": 100,
            "enabled": false
          },
          {
            "time": 6.75,
            "duration": 0.25,
            "pitch": 40,
            "velocity": 100,
            "enabled": true
          },
          {
            "time": 7.0,
            "duration": 0.25,
            "pitch": 40,
            "velocity": 100,
            "enabled": true
          },
          {
            "time": 7.25,
            "duration": 0.25,
            "pitch": 40,
            "velocity": 100,
            "enabled": true
          },
          {
            "time": 7.5,
            "duration": 0.25,
            "pitch": 40,
            "velocity": 100,
            "enabled": true
          },
          {
            "time": 9.0,
            "duration": 0.25,
            "pitch": 40,
            "velocity": 100,
            "enabled": false
          }
        ]
      }
    ],
    "devices": [],
    "automation": [
      {
        "device_id": null,
        "points_count": 29,
        "points": [
          {
            "time": -63072000.0,
            "value": 0.5748031735
          },
          {
            "time": 0.1127619776057276,
            "value": 0.5748031735
          },
          {
            "time": 0.1127619776057276,
            "value": 0.527559042
          },
          {
            "time": 0.2899592594905095,
            "value": 0.511811018
          },
          {
            "time": 0.4671565413752914,
            "value": 0.48031497
          },
          {
            "time": 0.8790204587079588,
            "value": 0.48031497
          },
          {
            "time": 1.0514285193972694,
            "value": 0.472440958
          },
          {
            "time": 1.4872380223942725,
            "value": 0.472440958
          },
          {
            "time": 1.4872380223942725,
            "value": 0.48031497
          },
          {
            "time": 1.6740134865134866,
            "value": 0.488188982
          }
        ]
      },
      {
        "device_id": null,
        "points_count": 9,
        "points": [
          {
            "time": -63072000.0,
            "value": 0.3779527545
          },
          {
            "time": 9.106721143439893,
            "value": 0.3779527545
          },
          {
            "time": 9.274340243090244,
            "value": 0.4094488323
          },
          {
            "time": 9.461115707209457,
            "value": 0.4251968563
          },
          {
            "time": 9.68141493922744,
            "value": 0.4409448802
          },
          {
            "time": 9.85382299991675,
            "value": 0.4645669162
          },
          {
            "time": 10.054965867465867,
            "value": 0.472440958
          },
          {
            "time": 10.251319773976023,
            "value": 0.48031497
          },
          {
            "time": 10.514721216283716,
            "value": 0.503937006
          }
        ]
      },
      {
        "device_id": null,
        "points_count": 22,
        "points": [
          {
            "time": -63072000.0,
            "value": 0.07086614519
          },
          {
            "time": 0.1275646228771229,
            "value": 0.07086614519
          },
          {
            "time": 0.1275646228771229,
            "value": 0.0
          },
          {
            "time": 0.15629942973692973,
            "value": 0.0
          },
          {
            "time": 0.15629942973692973,
            "value": 0.3307086527
          },
          {
            "time": 12.114285714285714,
            "value": 0.3307086527
          },
          {
            "time": 12.281904813936064,
            "value": 0.3622047305
          },
          {
            "time": 12.545305996087246,
            "value": 0.3622047305
          },
          {
            "time": 12.918857184482185,
            "value": 0.3858267665
          },
          {
            "time": 13.091265245171495,
            "value": 0.4015747905
          }
        ]
      }
    ],
    "sends": [
      {
        "active": false,
        "value": 0.1927524507
      },
      {
        "active": false,
        "value": 0.0003162277571
      }
    ],
    "volume": 0.3981071115,
    "pan": 0.0
  },
  {
    "name": "2-Coral Kit",
    "type": "MIDI",
    "track_type": "drums",
    "clips": [
      {
        "name": "Funk Straight Beat 01 16th HH Closed (Clean)",
        "start": 0.0,
        "end": 16.0,
        "duration": 16.0,
        "notes_count": 90,
        "note_statistics": {
          "enabled_notes": 90,
          "disabled_notes": 0,
          "pitch_range": {
            "min": 36,
            "max": 51,
            "unique_count": 4
          },
          "velocity_range": {
            "min": 2,
            "max": 109,
            "avg": 41.36666666666667
          },
          "duration_range": {
            "min": 0.12083333333333333,
            "max": 0.12083333333333333,
            "avg": 0.12083333333333333
          },
          "note_density": 5.670779732213179
        },
        "notes": [
          {
            "time": 0.0,
            "duration": 0.12083333333333333,
            "pitch": 36,
            "velocity": 71,
            "enabled": true
          },
          {
            "time": 1.7625,
            "duration": 0.12083333333333333,
            "pitch": 36,
            "velocity": 23,
            "enabled": true
          },
          {
            "time": 2.0,
            "duration": 0.12083333333333333,
            "pitch": 36,
            "velocity": 78,
            "enabled": true
          },
          {
            "time": 4.0,
            "duration": 0.12083333333333333,
            "pitch": 36,
            "velocity": 78,
            "enabled": true
          },
          {
            "time": 4.5,
            "duration": 0.12083333333333333,
            "pitch": 36,
            "velocity": 79,
            "enabled": true
          },
          {
            "time": 5.25,
            "duration": 0.12083333333333333,
            "pitch": 36,
            "velocity": 79,
            "enabled": true
          },
          {
            "time": 5.7625,
            "duration": 0.12083333333333333,
            "pitch": 36,
            "velocity": 34,
            "enabled": true
          },
          {
            "time": 6.0,
            "duration": 0.12083333333333333,
            "pitch": 36,
            "velocity": 77,
            "enabled": true
          },
          {
            "time": 8.0,
            "duration": 0.12083333333333333,
            "pitch": 36,
            "velocity": 78,
            "enabled": true
          },
          {
            "time": 9.7625,
            "duration": 0.12083333333333333,
            "pitch": 36,
            "velocity": 27,
            "enabled": true
          },
          {
            "time": 10.0,
            "duration": 0.12083333333333333,
            "pitch": 36,
            "velocity": 81,
            "enabled": true
          },
          {
            "time": 12.0,
            "duration": 0.12083333333333333,
            "pitch": 36,
            "velocity": 74,
            "enabled": true
          },
          {
            "time": 12.5,
            "duration": 0.12083333333333333,
            "pitch": 36,
            "velocity": 74,
            "enabled": true
          },
          {
            "time": 13.25,
            "duration": 0.12083333333333333,
            "pitch": 36,
            "velocity": 72,
            "enabled": true
          },
          {
            "time": 13.7625,
            "duration": 0.12083333333333333,
            "pitch": 36,
            "velocity": 26,
            "enabled": true
          },
          {
            "time": 14.0,
            "duration": 0.12083333333333333,
            "pitch": 36,
            "velocity": 80,
            "enabled": true
          },
          {
            "time": 14.497916666666667,
            "duration": 0.12083333333333333,
            "pitch": 36,
            "velocity": 80,
            "enabled": true
          },
          {
            "time": 15.25,
            "duration": 0.12083333333333333,
            "pitch": 36,
            "velocity": 80,
            "enabled": true
          },
          {
            "time": 15.75,
            "duration": 0.12083333333333333,
            "pitch": 36,
            "velocity": 23,
            "enabled": true
          },
          {
            "time": 1.0,
            "duration": 0.12083333333333333,
            "pitch": 38,
            "velocity": 109,
            "enabled": true
          },
          {
            "time": 3.0,
            "duration": 0.12083333333333333,
            "pitch": 38,
            "velocity": 108,
            "enabled": true
          },
          {
            "time": 5.0,
            "duration": 0.12083333333333333,
            "pitch": 38,
            "velocity": 109,
            "enabled": true
          },
          {
            "time": 7.0,
            "duration": 0.12083333333333333,
            "pitch": 38,
            "velocity": 108,
            "enabled": true
          },
          {
            "time": 9.0,
            "duration": 0.12083333333333333,
            "pitch": 38,
            "velocity": 109,
            "enabled": true
          },
          {
            "time": 11.0,
            "duration": 0.12083333333333333,
            "pitch": 38,
            "velocity": 108,
            "enabled": true
          },
          {
            "time": 13.0,
            "duration": 0.12083333333333333,
            "pitch": 38,
            "velocity": 109,
            "enabled": true
          },
          {
            "time": 15.0,
            "duration": 0.12083333333333333,
            "pitch": 38,
            "velocity": 109,
            "enabled": true
          },
          {
            "time": 0.25,
            "duration": 0.12083333333333333,
            "pitch": 49,
            "velocity": 9,
            "enabled": true
          },
          {
            "time": 0.5,
            "duration": 0.12083333333333333,
            "pitch": 49,
            "velocity": 16,
            "enabled": true
          },
          {
            "time": 0.75,
            "duration": 0.12083333333333333,
            "pitch": 49,
            "velocity": 28,
            "enabled": true
          },
          {
            "time": 1.25,
            "duration": 0.12083333333333333,
            "pitch": 49,
            "velocity": 13,
            "enabled": true
          },
          {
            "time": 1.5,
            "duration": 0.12083333333333333,
            "pitch": 49,
            "velocity": 20,
            "enabled": true
          },
          {
            "time": 1.75,
            "duration": 0.12083333333333333,
            "pitch": 49,
            "velocity": 32,
            "enabled": true
          },
          {
            "time": 2.25,
            "duration": 0.12083333333333333,
            "pitch": 49,
            "velocity": 11,
            "enabled": true
          },
          {
            "time": 2.5,
            "duration": 0.12083333333333333,
            "pitch": 49,
            "velocity": 18,
            "enabled": true
          },
          {
            "time": 2.75,
            "duration": 0.12083333333333333,
            "pitch": 49,
            "velocity": 30,
            "enabled": true
          },
          {
            "time": 3.25,
            "duration": 0.12083333333333333,
            "pitch": 49,
            "velocity": 10,
            "enabled": true
          },
          {
            "time": 3.5,
            "duration": 0.12083333333333333,
            "pitch": 49,
            "velocity": 17,
            "enabled": true
          },
          {
            "time": 3.75,
            "duration": 0.12083333333333333,
            "pitch": 49,
            "velocity": 29,
            "enabled": true
          },
          {
            "time": 4.25,
            "duration": 0.12083333333333333,
            "pitch": 49,
            "velocity": 13,
            "enabled": true
          },
          {
            "time": 4.5,
            "duration": 0.12083333333333333,
            "pitch": 49,
            "velocity": 20,
            "enabled": true
          },
          {
            "time": 4.75,
            "duration": 0.12083333333333333,
            "pitch": 49,
            "velocity": 32,
            "enabled": true
          },
          {
            "time": 5.25,
            "duration": 0.12083333333333333,
            "pitch": 49,
            "velocity": 2,
            "enabled": true
          },
          {
            "time": 5.5,
            "duration": 0.12083333333333333,
            "pitch": 49,
            "velocity": 9,
            "enabled": true
          },
          {
            "time": 5.75,
            "duration": 0.12083333333333333,
            "pitch": 49,
            "velocity": 21,
            "enabled": true
          },
          {
            "time": 6.25,
            "duration": 0.12083333333333333,
            "pitch": 49,
            "velocity": 4,
            "enabled": true
          },
          {
            "time": 6.5,
            "duration": 0.12083333333333333,
            "pitch": 49,
            "velocity": 11,
            "enabled": true
          },
          {
            "time": 6.75,
            "duration": 0.12083333333333333,
            "pitch": 49,
            "velocity": 23,
            "enabled": true
          },
          {
            "time": 7.5,
            "duration": 0.12083333333333333,
            "pitch": 49,
            "velocity": 7,
            "enabled": true
          },
          {
            "time": 7.75,
            "duration": 0.12083333333333333,
            "pitch": 49,
            "velocity": 19,
            "enabled": true
          },
          {
            "time": 8.25,
            "duration": 0.12083333333333333,
            "pitch": 49,
            "velocity": 9,
            "enabled": true
          },
          {
            "time": 8.5,
            "duration": 0.12083333333333333,
            "pitch": 49,
            "velocity": 16,
            "enabled": true
          },
          {
            "time": 8.75,
            "duration": 0.12083333333333333,
            "pitch": 49,
            "velocity": 28,
            "enabled": true
          },
          {
            "time": 9.25,
            "duration": 0.12083333333333333,
            "pitch": 49,
            "velocity": 9,
            "enabled": true
          },
          {
            "time": 9.5,
            "duration": 0.12083333333333333,
            "pitch": 49,
            "velocity": 16,
            "enabled": true
          },
          {
            "time": 9.75,
            "duration": 0.12083333333333333,
            "pitch": 49,
            "velocity": 28,
            "enabled": true
          },
          {
            "time": 10.25,
            "duration": 0.12083333333333333,
            "pitch": 49,
            "velocity": 13,
            "enabled": true
          },
          {
            "time": 10.5,
            "duration": 0.12083333333333333,
            "pitch": 49,
            "velocity": 20,
            "enabled": true
          },
          {
            "time": 10.75,
            "duration": 0.12083333333333333,
            "pitch": 49,
            "velocity": 32,
            "enabled": true
          },
          {
            "time": 11.25,
            "duration": 0.12083333333333333,
            "pitch": 49,
            "velocity": 10,
            "enabled": true
          },
          {
            "time": 11.5,
            "duration": 0.12083333333333333,
            "pitch": 49,
            "velocity": 17,
            "enabled": true
          },
          {
            "time": 11.75,
            "duration": 0.12083333333333333,
            "pitch": 49,
            "velocity": 29,
            "enabled": true
          },
          {
            "time": 12.25,
            "duration": 0.12083333333333333,
            "pitch": 49,
            "velocity": 9,
            "enabled": true
          },
          {
            "time": 12.5,
            "duration": 0.12083333333333333,
            "pitch": 49,
            "velocity": 16,
            "enabled": true
          },
          {
            "time": 12.75,
            "duration": 0.12083333333333333,
            "pitch": 49,
            "velocity": 28,
            "enabled": true
          },
          {
            "time": 13.25,
            "duration": 0.12083333333333333,
            "pitch": 49,
            "velocity": 9,
            "enabled": true
          },
          {
            "time": 13.5,
            "duration": 0.12083333333333333,
            "pitch": 49,
            "velocity": 16,
            "enabled": true
          },
          {
            "time": 13.75,
            "duration": 0.12083333333333333,
            "pitch": 49,
            "velocity": 28,
            "enabled": true
          },
          {
            "time": 14.25,
            "duration": 0.12083333333333333,
            "pitch": 49,
            "velocity": 9,
            "enabled": true
          },
          {
            "time": 14.5,
            "duration": 0.12083333333333333,
            "pitch": 49,
            "velocity": 16,
            "enabled": true
          },
          {
            "time": 14.75,
            "duration": 0.12083333333333333,
            "pitch": 49,
            "velocity": 28,
            "enabled": true
          },
          {
            "time": 15.25,
            "duration": 0.12083333333333333,
            "pitch": 49,
            "velocity": 22,
            "enabled": true
          },
          {
            "time": 15.5,
            "duration": 0.12083333333333333,
            "pitch": 49,
            "velocity": 29,
            "enabled": true
          },
          {
            "time": 15.75,
            "duration": 0.12083333333333333,
            "pitch": 49,
            "velocity": 41,
            "enabled": true
          },
          {
            "time": 0.0,
            "duration": 0.12083333333333333,
            "pitch": 51,
            "velocity": 64,
            "enabled": true
          },
          {
            "time": 1.0,
            "duration": 0.12083333333333333,
            "pitch": 51,
            "velocity": 42,
            "enabled": true
          },
          {
            "time": 2.0,
            "duration": 0.12083333333333333,
            "pitch": 51,
            "velocity": 48,
            "enabled": true
          },
          {
            "time": 3.0,
            "duration": 0.12083333333333333,
            "pitch": 51,
            "velocity": 52,
            "enabled": true
          },
          {
            "time": 4.0,
            "duration": 0.12083333333333333,
            "pitch": 51,
            "velocity": 45,
            "enabled": true
          },
          {
            "time": 5.0,
            "duration": 0.12083333333333333,
            "pitch": 51,
            "velocity": 42,
            "enabled": true
          },
          {
            "time": 6.0,
            "duration": 0.12083333333333333,
            "pitch": 51,
            "velocity": 42,
            "enabled": true
          },
          {
            "time": 7.0,
            "duration": 0.12083333333333333,
            "pitch": 51,
            "velocity": 29,
            "enabled": true
          },
          {
            "time": 8.0,
            "duration": 0.12083333333333333,
            "pitch": 51,
            "velocity": 42,
            "enabled": true
          },
          {
            "time": 9.0,
            "duration": 0.12083333333333333,
            "pitch": 51,
            "velocity": 53,
            "enabled": true
          },
          {
            "time": 10.0,
            "duration": 0.12083333333333333,
            "pitch": 51,
            "velocity": 53,
            "enabled": true
          },
          {
            "time": 11.0,
            "duration": 0.12083333333333333,
            "pitch": 51,
            "velocity": 54,
            "enabled": true
          },
          {
            "time": 12.0,
            "duration": 0.12083333333333333,
            "pitch": 51,
            "velocity": 48,
            "enabled": true
          },
          {
            "time": 13.0,
            "duration": 0.12083333333333333,
            "pitch": 51,
            "velocity": 61,
            "enabled": true
          },
          {
            "time": 14.0,
            "duration": 0.12083333333333333,
            "pitch": 51,
            "velocity": 64,
            "enabled": true
          },
          {
            "time": 15.0,
            "duration": 0.12083333333333333,
            "pitch": 51,
            "velocity": 29,
            "enabled": true
          }
        ]
      }
    ],
    "devices": [
      {
        "type": "EffectRack",
        "name": "Core Drum Master",
        "parameters": {}
      },
      {
        "type": "Compressor2",
        "name": "Compressor2",
        "parameters": {}
      }
    ],
    "automation": [],
    "sends": [
      {
        "active": false,
        "value": 0.0003162277571
      },
      {
        "active": false,
        "value": 0.0003162277571
      }
    ],
    "volume": 0.4120975137,
    "pan": 0.0
  },
  {
    "name": "master",
    "type": "Audio",
    "track_type": "master",
    "clips": [
      {
        "name": "master",
        "type": "Audio",
        "start": 0.0,
        "end": 16.0,
        "duration": 16.0
      }
    ],
    "devices": [],
    "automation": [],
    "sends": [],
    "volume": null,
    "pan": null
  }
]